<mxfile host="Electron" agent="Mozilla/5.0 (Windows NT 10.0; Win64; x64) AppleWebKit/537.36 (KHTML, like Gecko) draw.io/24.7.8 Chrome/128.0.6613.36 Electron/32.0.1 Safari/537.36" version="24.7.8">
  <diagram name="PÃ¡gina-1" id="RX6XIXSyK1y8CNCgVuok">
    <mxGraphModel dx="1397" dy="817" grid="1" gridSize="10" guides="1" tooltips="1" connect="1" arrows="1" fold="1" page="1" pageScale="1" pageWidth="827" pageHeight="1169" math="0" shadow="0">
      <root>
        <mxCell id="0" />
        <mxCell id="1" parent="0" />
        <mxCell id="UGB1vRU7x65sThX-cDYz-15" value="&lt;font color=&quot;#000000&quot;&gt;Cliente&lt;/font&gt;" style="shape=umlActor;verticalLabelPosition=bottom;verticalAlign=top;html=1;fontFamily=Helvetica;fontSize=12;align=center;strokeColor=#000000;strokeWidth=1;fillColor=#d5e8d4;" vertex="1" parent="1">
          <mxGeometry x="280" y="157" width="30" height="63" as="geometry" />
        </mxCell>
        <mxCell id="UGB1vRU7x65sThX-cDYz-16" value="Usuario registrado" style="shape=umlActor;verticalLabelPosition=bottom;verticalAlign=top;html=1;fontFamily=Helvetica;fontSize=12;align=center;strokeColor=#000000;strokeWidth=1;fillColor=#d5e8d4;" vertex="1" parent="1">
          <mxGeometry x="384" y="160" width="30" height="60" as="geometry" />
        </mxCell>
        <mxCell id="UGB1vRU7x65sThX-cDYz-17" value="&lt;font color=&quot;#000000&quot;&gt;Gestor&lt;/font&gt;" style="shape=umlActor;verticalLabelPosition=bottom;verticalAlign=top;html=1;fontFamily=Helvetica;fontSize=12;align=center;strokeColor=#000000;strokeWidth=1;fillColor=#d5e8d4;" vertex="1" parent="1">
          <mxGeometry x="170" y="160" width="30" height="60" as="geometry" />
        </mxCell>
        <mxCell id="UGB1vRU7x65sThX-cDYz-18" value="&lt;font color=&quot;#000000&quot;&gt;Usuario&lt;/font&gt;" style="shape=umlActor;verticalLabelPosition=bottom;verticalAlign=top;html=1;fontFamily=Helvetica;fontSize=12;align=center;strokeColor=#000000;strokeWidth=1;fillColor=#d5e8d4;" vertex="1" parent="1">
          <mxGeometry x="490" y="160" width="30" height="60" as="geometry" />
        </mxCell>
        <mxCell id="UGB1vRU7x65sThX-cDYz-22" value="Extends" style="endArrow=block;endSize=16;endFill=0;html=1;rounded=0;entryX=0.5;entryY=0.5;entryDx=0;entryDy=0;entryPerimeter=0;exitX=0.5;exitY=0.5;exitDx=0;exitDy=0;exitPerimeter=0;" edge="1" parent="1" source="UGB1vRU7x65sThX-cDYz-17" target="UGB1vRU7x65sThX-cDYz-15">
          <mxGeometry width="160" relative="1" as="geometry">
            <mxPoint x="500" y="483" as="sourcePoint" />
            <mxPoint x="490" y="403" as="targetPoint" />
          </mxGeometry>
        </mxCell>
        <mxCell id="UGB1vRU7x65sThX-cDYz-26" value="Extends" style="endArrow=block;endSize=16;endFill=0;html=1;rounded=0;entryX=0.5;entryY=0.5;entryDx=0;entryDy=0;entryPerimeter=0;exitX=0.667;exitY=0.524;exitDx=0;exitDy=0;exitPerimeter=0;" edge="1" parent="1" source="UGB1vRU7x65sThX-cDYz-15" target="UGB1vRU7x65sThX-cDYz-16">
          <mxGeometry width="160" relative="1" as="geometry">
            <mxPoint x="195" y="200" as="sourcePoint" />
            <mxPoint x="305" y="199" as="targetPoint" />
          </mxGeometry>
        </mxCell>
        <mxCell id="UGB1vRU7x65sThX-cDYz-27" value="Extends" style="endArrow=block;endSize=16;endFill=0;html=1;rounded=0;entryX=0.5;entryY=0.5;entryDx=0;entryDy=0;entryPerimeter=0;" edge="1" parent="1" target="UGB1vRU7x65sThX-cDYz-18">
          <mxGeometry width="160" relative="1" as="geometry">
            <mxPoint x="400" y="190" as="sourcePoint" />
            <mxPoint x="409" y="200" as="targetPoint" />
          </mxGeometry>
        </mxCell>
      </root>
    </mxGraphModel>
  </diagram>
</mxfile>
